<?xml version="1.0" encoding="utf-8"?>
<svg version="1.1" xmlns:xlink="http://www.w3.org/1999/xlink" width="30px" height="30px" xmlns="http://www.w3.org/2000/svg">
  <g transform="matrix(1 0 0 1 -40 -70 )">
    <path d="M 55 71  C 62.84 71  69 77.16  69 85  C 69 92.84  62.84 99  55 99  C 47.16 99  41 92.84  41 85  C 41 77.16  47.16 71  55 71  Z " fill-rule="nonzero" fill="#ffffff" stroke="none" />
    <path d="M 55 71  C 62.84 71  69 77.16  69 85  C 69 92.84  62.84 99  55 99  C 47.16 99  41 92.84  41 85  C 41 77.16  47.16 71  55 71  Z " stroke-width="2" stroke="#f56c6c" fill="none" />
  </g>
</svg>