<?xml version="1.0" encoding="utf-8"?>
<svg version="1.1" xmlns:xlink="http://www.w3.org/1999/xlink" width="35px" height="35px" xmlns="http://www.w3.org/2000/svg">
  <g transform="matrix(1 0 0 1 -114 -80 )">
    <path d="M 131.5 81  C 140.74 81  148 88.26  148 97.5  C 148 106.74  140.74 114  131.5 114  C 122.26 114  115 106.74  115 97.5  C 115 88.26  122.26 81  131.5 81  Z " fill-rule="nonzero" fill="#ff9900" stroke="none" />
    <path d="M 131.5 81  C 140.74 81  148 88.26  148 97.5  C 148 106.74  140.74 114  131.5 114  C 122.26 114  115 106.74  115 97.5  C 115 88.26  122.26 81  131.5 81  Z " stroke-width="2" stroke="#ff9900" fill="none" />
  </g>
</svg>