<?xml version="1.0" encoding="utf-8"?>
<svg version="1.1" xmlns:xlink="http://www.w3.org/1999/xlink" width="40px" height="40px" xmlns="http://www.w3.org/2000/svg">
  <g transform="matrix(1 0 0 1 -168 -435 )">
    <path d="M 169 455  A 19 19 0 0 1 188 436 A 19 19 0 0 1 207 455 A 19 19 0 0 1 188 474 A 19 19 0 0 1 169 455 Z " fill-rule="nonzero" fill="#ffffff" stroke="none" />
    <path d="M 168.5 455  A 19.5 19.5 0 0 1 188 435.5 A 19.5 19.5 0 0 1 207.5 455 A 19.5 19.5 0 0 1 188 474.5 A 19.5 19.5 0 0 1 168.5 455 Z " stroke-width="1" stroke-dasharray="3,1" stroke="#cccccc" fill="none" stroke-dashoffset="0.5" />
  </g>
</svg>