<?xml version="1.0" standalone="no"?><!DOCTYPE svg PUBLIC "-//W3C//DTD SVG 1.1//EN" "http://www.w3.org/Graphics/SVG/1.1/DTD/svg11.dtd"><svg t="1576742042989" class="icon" viewBox="0 0 1024 1024" version="1.1" xmlns="http://www.w3.org/2000/svg" p-id="2841" width="64" height="64" xmlns:xlink="http://www.w3.org/1999/xlink"><defs><style type="text/css"></style></defs><path d="M512 916.210526c223.232 0 404.210526-180.978526 404.210526-404.210526 0-223.232-180.978526-404.210526-404.210526-404.210526-223.232 0-404.210526 180.978526-404.210526 404.210526 0 223.232 180.978526 404.210526 404.210526 404.210526z m0 80.842106C244.116211 997.052632 26.947368 779.883789 26.947368 512S244.116211 26.947368 512 26.947368s485.052632 217.168842 485.052632 485.052632-217.168842 485.052632-485.052632 485.052632z m-204.934737-536.495158l68.527158 55.592421c-17.650526 21.126737-23.713684 32.336842-25.869474 49.987368-3.853474 28.887579 9.512421 60.362105 37.510737 88.360421 43.115789 43.115789 88.360421 49.556211 120.670316 17.246316 17.677474-17.677474 24.144842-40.528842 18.108632-61.197474-6.036211-19.833263-8.192-22.851368-53.894737-96.121263-24.980211-39.639579-35.301053-63.784421-38.777263-91.351579-4.742737-39.235368 7.760842-74.132211 36.648421-102.992842 59.904-59.904 146.944-50.445474 221.07621 23.713684 49.125053 49.098105 71.114105 101.241263 63.784421 150.824421-3.449263 24.980211-11.210105 43.088842-28.887579 71.087158l-68.931368-54.298947c12.045474-17.246316 16.357053-27.567158 17.650526-43.52 2.155789-24.576-9.485474-50.849684-33.17221-74.563369-37.510737-37.483789-81.893053-43.951158-109.891369-15.925894-18.108632 18.081684-21.126737 40.070737-9.916631 68.50021 5.605053 13.365895 8.192 17.677474 45.271579 76.288 26.677895 41.364211 39.181474 70.251789 43.92421 96.525474 6.467368 42.684632-6.036211 77.608421-38.346105 109.918316-30.612211 30.585263-65.077895 46.08-100.405895 46.08-44.840421-0.835368-89.653895-24.117895-135.760842-70.224842-35.328-35.328-61.197474-78.416842-68.096-112.909474-5.605053-28.887579-1.724632-57.748211 11.210105-87.04 6.036211-13.797053 12.503579-23.713684 27.567158-43.978105z" fill="#cccccc" p-id="2842"></path></svg>